<svg width="640" height="512" viewBox="0 0 640 512" fill="none" xmlns="http://www.w3.org/2000/svg">
<g clip-path="url(#clip0_1_5)">
<path d="M497.837 446.55C577.735 445.708 641.75 380.33 640.909 300.431C640.164 229.724 588.407 169.95 518.568 159.089L516.655 158.755C499.16 156.04 482.81 168.022 480.165 185.446C477.52 202.869 489.432 219.291 506.855 221.936L508.768 222.269C547.725 228.365 576.574 261.65 576.918 301.035C577.388 345.58 541.707 382.02 497.162 382.49L338.356 384.304C293.811 384.774 257.37 349.093 256.901 304.548C256.485 265.093 284.626 231.208 323.376 224.364L325.282 223.991C342.716 220.908 354.279 204.239 351.197 186.946C348.116 169.653 331.445 157.949 314.153 161.03L312.247 161.404C242.651 173.593 192.166 234.445 192.911 305.151C193.752 385.05 259.131 449.065 339.029 448.223L497.837 446.55ZM142.945 66.3089C63.0459 67.1508 -0.969099 132.529 -0.127248 212.428C0.617754 283.135 52.3742 342.909 122.213 353.77L124.126 354.104C141.621 356.818 157.971 344.837 160.616 327.413C163.261 309.99 151.35 293.568 133.926 290.923L132.013 290.589C93.0561 284.494 64.2074 251.209 63.8631 211.824C63.4637 167.208 99.1442 130.767 143.689 130.298L302.425 128.555C346.971 128.085 383.411 163.766 383.88 208.311C384.296 247.765 356.155 281.651 317.335 288.566L315.43 288.94C297.996 292.023 286.433 308.692 289.514 325.984C292.596 343.277 309.266 354.981 326.559 351.9L328.464 351.526C398.13 339.266 448.616 278.414 447.871 207.707C447.029 127.809 381.651 63.7938 301.752 64.6357L142.945 66.3089Z" fill="#0678E2"/>
</g>
<defs>
<clipPath id="clip0_1_5">
<rect width="640" height="512" fill="white"/>
</clipPath>
</defs>
</svg>
